<svg width="128" height="128" viewBox="0 0 128 128" fill="none" xmlns="http://www.w3.org/2000/svg">
<rect width="128" height="128" fill="#0084FF"/>
<path d="M25.4062 22.75V45.5H20.8594V22.75H25.4062ZM31.0625 22.75V26.5469H15.3125V22.75H31.0625ZM46.3281 31.9688V35.75H37V31.9688H46.3281ZM38.2969 22.75V45.5H33.7188V22.75H38.2969ZM49.6406 22.75V45.5H45.1094V22.75H49.6406ZM66.4219 41.7188V45.5H56.5312V41.7188H66.4219ZM57.9531 22.75V45.5H53.375V22.75H57.9531ZM65.0938 31.9688V35.6406H56.5312V31.9688H65.0938ZM66.3906 22.75V26.5469H56.5312V22.75H66.3906ZM25.4062 52.75V75.5H20.8594V52.75H25.4062ZM31.0625 52.75V56.5469H15.3125V52.75H31.0625ZM33.7344 52.75H41.0312C42.5521 52.75 43.849 53.0104 44.9219 53.5312C45.9948 54.0521 46.8177 54.8229 47.3906 55.8438C47.9635 56.8646 48.25 58.125 48.25 59.625C48.25 60.8542 48.0833 61.9062 47.75 62.7812C47.4167 63.6458 46.9427 64.3698 46.3281 64.9531C45.7135 65.526 44.9792 65.9844 44.125 66.3281L42.7344 67.1562H36.8125L36.7969 63.3594H40.9062C41.5312 63.3594 42.0469 63.224 42.4531 62.9531C42.8698 62.6719 43.1771 62.2812 43.375 61.7812C43.5833 61.2708 43.6875 60.6771 43.6875 60C43.6875 59.2812 43.5938 58.6667 43.4062 58.1562C43.2292 57.6354 42.9427 57.2396 42.5469 56.9688C42.1615 56.6875 41.6562 56.5469 41.0312 56.5469H38.3125V75.5H33.7344V52.75ZM44.0625 75.5L39.8906 65.3594L44.6875 65.3438L48.9531 75.2812V75.5H44.0625ZM54.0625 52.75L57.5312 63L60.9688 52.75H65.9531L59.8281 67.2344V75.5H55.2188V67.2344L49.0938 52.75H54.0625ZM72.8125 52.75V75.5H68.2656V52.75H72.8125ZM92.625 52.75V75.5H88.2031L81.0625 61.2656V75.5H76.7188V52.75H81.0781L88.2812 67.1406V52.75H92.625ZM111.766 63.5469V72.9219C111.443 73.2656 110.969 73.6667 110.344 74.125C109.729 74.5729 108.922 74.9688 107.922 75.3125C106.932 75.6458 105.724 75.8125 104.297 75.8125C103.036 75.8125 101.891 75.6146 100.859 75.2188C99.8385 74.8229 98.9583 74.224 98.2188 73.4219C97.4896 72.6094 96.9323 71.599 96.5469 70.3906C96.1615 69.1719 95.9688 67.7292 95.9688 66.0625V62.1875C95.9688 60.5417 96.151 59.1094 96.5156 57.8906C96.8906 56.6615 97.4323 55.6406 98.1406 54.8281C98.849 54.0156 99.6927 53.4115 100.672 53.0156C101.661 52.6198 102.776 52.4219 104.016 52.4219C105.724 52.4219 107.125 52.7083 108.219 53.2812C109.323 53.8542 110.156 54.7031 110.719 55.8281C111.292 56.9531 111.635 58.3333 111.75 59.9688H107.328C107.255 59.0104 107.094 58.2604 106.844 57.7188C106.604 57.1771 106.266 56.7917 105.828 56.5625C105.391 56.3229 104.823 56.2031 104.125 56.2031C103.521 56.2031 102.995 56.3125 102.547 56.5312C102.099 56.7396 101.724 57.0833 101.422 57.5625C101.12 58.0417 100.896 58.6562 100.75 59.4062C100.604 60.1562 100.531 61.0729 100.531 62.1562V66.0625C100.531 67.1354 100.615 68.0521 100.781 68.8125C100.948 69.5729 101.193 70.1927 101.516 70.6719C101.849 71.151 102.266 71.5 102.766 71.7188C103.276 71.9271 103.875 72.0312 104.562 72.0312C105.115 72.0312 105.557 71.974 105.891 71.8594C106.224 71.7448 106.49 71.625 106.688 71.5C106.896 71.3646 107.068 71.2604 107.203 71.1875V67H103.938V63.5469H111.766ZM25.4062 82.75V105.5H20.8594V82.75H25.4062ZM31.0625 82.75V86.5469H15.3125V82.75H31.0625ZM38.4688 82.75V105.5H33.9219V82.75H38.4688ZM44 82.75H48.0156L52.6562 98.3125L57.2812 82.75H60.8281L54.3594 105.5H50.9375L44 82.75ZM42.375 82.75H46.2031L46.7969 97.75V105.5H42.375V82.75ZM59.0781 82.75H62.9219V105.5H58.5156V97.75L59.0781 82.75ZM79.7031 101.719V105.5H69.8125V101.719H79.7031ZM71.2344 82.75V105.5H66.6562V82.75H71.2344ZM78.375 91.9688V95.6406H69.8125V91.9688H78.375ZM79.6719 82.75V86.5469H69.8125V82.75H79.6719ZM92 99.5156C92 99.1094 91.9635 98.7396 91.8906 98.4062C91.8177 98.0729 91.6615 97.7656 91.4219 97.4844C91.1927 97.2031 90.8542 96.9219 90.4062 96.6406C89.9688 96.3594 89.3958 96.0677 88.6875 95.7656C87.8438 95.4115 87.026 95.0365 86.2344 94.6406C85.4427 94.2344 84.7292 93.7656 84.0938 93.2344C83.4583 92.7031 82.9531 92.0781 82.5781 91.3594C82.2135 90.6302 82.0312 89.776 82.0312 88.7969C82.0312 87.8385 82.2031 86.9688 82.5469 86.1875C82.901 85.4062 83.401 84.7396 84.0469 84.1875C84.6927 83.625 85.4479 83.1927 86.3125 82.8906C87.1875 82.5885 88.1615 82.4375 89.2344 82.4375C90.6927 82.4375 91.9531 82.7396 93.0156 83.3438C94.0885 83.9479 94.9167 84.776 95.5 85.8281C96.0938 86.8802 96.3906 88.0885 96.3906 89.4531H91.8281C91.8281 88.8073 91.7344 88.2396 91.5469 87.75C91.3698 87.25 91.0833 86.8594 90.6875 86.5781C90.2917 86.2969 89.7812 86.1562 89.1562 86.1562C88.5729 86.1562 88.0885 86.276 87.7031 86.5156C87.3281 86.7448 87.0469 87.0625 86.8594 87.4688C86.6823 87.8646 86.5938 88.3125 86.5938 88.8125C86.5938 89.1875 86.6823 89.526 86.8594 89.8281C87.0469 90.1198 87.3021 90.3854 87.625 90.625C87.9479 90.8542 88.3281 91.0781 88.7656 91.2969C89.2135 91.5156 89.7031 91.7292 90.2344 91.9375C91.2656 92.3438 92.1771 92.7917 92.9688 93.2812C93.7604 93.7604 94.4219 94.3021 94.9531 94.9062C95.4844 95.5 95.8854 96.1719 96.1562 96.9219C96.4271 97.6719 96.5625 98.526 96.5625 99.4844C96.5625 100.432 96.3958 101.297 96.0625 102.078C95.7396 102.849 95.2656 103.516 94.6406 104.078C94.0156 104.63 93.2604 105.057 92.375 105.359C91.5 105.661 90.5208 105.812 89.4375 105.812C88.3854 105.812 87.3906 105.667 86.4531 105.375C85.5156 105.073 84.6875 104.62 83.9688 104.016C83.2604 103.401 82.7031 102.625 82.2969 101.688C81.8906 100.74 81.6875 99.6198 81.6875 98.3281H86.2656C86.2656 99.0156 86.3333 99.6042 86.4688 100.094C86.6042 100.573 86.8125 100.958 87.0938 101.25C87.375 101.531 87.7188 101.745 88.125 101.891C88.5417 102.026 89.0156 102.094 89.5469 102.094C90.151 102.094 90.6302 101.979 90.9844 101.75C91.349 101.521 91.6094 101.214 91.7656 100.828C91.9219 100.443 92 100.005 92 99.5156Z" fill="white"/>
</svg>
