<svg width="128" height="128" viewBox="0 0 128 128" fill="none" xmlns="http://www.w3.org/2000/svg">
<rect width="128" height="128" fill="#0084FF"/>
<path d="M25.4062 28.25V51H20.8594V28.25H25.4062ZM31.0625 28.25V32.0469H15.3125V28.25H31.0625ZM46.3281 37.4688V41.25H37V37.4688H46.3281ZM38.2969 28.25V51H33.7188V28.25H38.2969ZM49.6406 28.25V51H45.1094V28.25H49.6406ZM66.4219 47.2188V51H56.5312V47.2188H66.4219ZM57.9531 28.25V51H53.375V28.25H57.9531ZM65.0938 37.4688V41.1406H56.5312V37.4688H65.0938ZM66.3906 28.25V32.0469H56.5312V28.25H66.3906ZM25.4062 54.25V77H20.8594V54.25H25.4062ZM31.0625 54.25V58.0469H15.3125V54.25H31.0625ZM33.7344 54.25H41.0312C42.5521 54.25 43.849 54.5104 44.9219 55.0312C45.9948 55.5521 46.8177 56.3229 47.3906 57.3438C47.9635 58.3646 48.25 59.625 48.25 61.125C48.25 62.3542 48.0833 63.4062 47.75 64.2812C47.4167 65.1458 46.9427 65.8698 46.3281 66.4531C45.7135 67.026 44.9792 67.4844 44.125 67.8281L42.7344 68.6562H36.8125L36.7969 64.8594H40.9062C41.5312 64.8594 42.0469 64.724 42.4531 64.4531C42.8698 64.1719 43.1771 63.7812 43.375 63.2812C43.5833 62.7708 43.6875 62.1771 43.6875 61.5C43.6875 60.7812 43.5938 60.1667 43.4062 59.6562C43.2292 59.1354 42.9427 58.7396 42.5469 58.4688C42.1615 58.1875 41.6562 58.0469 41.0312 58.0469H38.3125V77H33.7344V54.25ZM44.0625 77L39.8906 66.8594L44.6875 66.8438L48.9531 76.7812V77H44.0625ZM54.0625 54.25L57.5312 64.5L60.9688 54.25H65.9531L59.8281 68.7344V77H55.2188V68.7344L49.0938 54.25H54.0625ZM72.8125 54.25V77H68.2656V54.25H72.8125ZM92.625 54.25V77H88.2031L81.0625 62.7656V77H76.7188V54.25H81.0781L88.2812 68.6406V54.25H92.625ZM111.766 65.0469V74.4219C111.443 74.7656 110.969 75.1667 110.344 75.625C109.729 76.0729 108.922 76.4688 107.922 76.8125C106.932 77.1458 105.724 77.3125 104.297 77.3125C103.036 77.3125 101.891 77.1146 100.859 76.7188C99.8385 76.3229 98.9583 75.724 98.2188 74.9219C97.4896 74.1094 96.9323 73.099 96.5469 71.8906C96.1615 70.6719 95.9688 69.2292 95.9688 67.5625V63.6875C95.9688 62.0417 96.151 60.6094 96.5156 59.3906C96.8906 58.1615 97.4323 57.1406 98.1406 56.3281C98.849 55.5156 99.6927 54.9115 100.672 54.5156C101.661 54.1198 102.776 53.9219 104.016 53.9219C105.724 53.9219 107.125 54.2083 108.219 54.7812C109.323 55.3542 110.156 56.2031 110.719 57.3281C111.292 58.4531 111.635 59.8333 111.75 61.4688H107.328C107.255 60.5104 107.094 59.7604 106.844 59.2188C106.604 58.6771 106.266 58.2917 105.828 58.0625C105.391 57.8229 104.823 57.7031 104.125 57.7031C103.521 57.7031 102.995 57.8125 102.547 58.0312C102.099 58.2396 101.724 58.5833 101.422 59.0625C101.12 59.5417 100.896 60.1562 100.75 60.9062C100.604 61.6562 100.531 62.5729 100.531 63.6562V67.5625C100.531 68.6354 100.615 69.5521 100.781 70.3125C100.948 71.0729 101.193 71.6927 101.516 72.1719C101.849 72.651 102.266 73 102.766 73.2188C103.276 73.4271 103.875 73.5312 104.562 73.5312C105.115 73.5312 105.557 73.474 105.891 73.3594C106.224 73.2448 106.49 73.125 106.688 73C106.896 72.8646 107.068 72.7604 107.203 72.6875V68.5H103.938V65.0469H111.766ZM25.4062 80.25V103H20.8594V80.25H25.4062ZM31.0625 80.25V84.0469H15.3125V80.25H31.0625ZM38.4688 80.25V103H33.9219V80.25H38.4688ZM44 80.25H48.0156L52.6562 95.8125L57.2812 80.25H60.8281L54.3594 103H50.9375L44 80.25ZM42.375 80.25H46.2031L46.7969 95.25V103H42.375V80.25ZM59.0781 80.25H62.9219V103H58.5156V95.25L59.0781 80.25ZM79.7031 99.2188V103H69.8125V99.2188H79.7031ZM71.2344 80.25V103H66.6562V80.25H71.2344ZM78.375 89.4688V93.1406H69.8125V89.4688H78.375ZM79.6719 80.25V84.0469H69.8125V80.25H79.6719ZM92 97.0156C92 96.6094 91.9635 96.2396 91.8906 95.9062C91.8177 95.5729 91.6615 95.2656 91.4219 94.9844C91.1927 94.7031 90.8542 94.4219 90.4062 94.1406C89.9688 93.8594 89.3958 93.5677 88.6875 93.2656C87.8438 92.9115 87.026 92.5365 86.2344 92.1406C85.4427 91.7344 84.7292 91.2656 84.0938 90.7344C83.4583 90.2031 82.9531 89.5781 82.5781 88.8594C82.2135 88.1302 82.0312 87.276 82.0312 86.2969C82.0312 85.3385 82.2031 84.4688 82.5469 83.6875C82.901 82.9062 83.401 82.2396 84.0469 81.6875C84.6927 81.125 85.4479 80.6927 86.3125 80.3906C87.1875 80.0885 88.1615 79.9375 89.2344 79.9375C90.6927 79.9375 91.9531 80.2396 93.0156 80.8438C94.0885 81.4479 94.9167 82.276 95.5 83.3281C96.0938 84.3802 96.3906 85.5885 96.3906 86.9531H91.8281C91.8281 86.3073 91.7344 85.7396 91.5469 85.25C91.3698 84.75 91.0833 84.3594 90.6875 84.0781C90.2917 83.7969 89.7812 83.6562 89.1562 83.6562C88.5729 83.6562 88.0885 83.776 87.7031 84.0156C87.3281 84.2448 87.0469 84.5625 86.8594 84.9688C86.6823 85.3646 86.5938 85.8125 86.5938 86.3125C86.5938 86.6875 86.6823 87.026 86.8594 87.3281C87.0469 87.6198 87.3021 87.8854 87.625 88.125C87.9479 88.3542 88.3281 88.5781 88.7656 88.7969C89.2135 89.0156 89.7031 89.2292 90.2344 89.4375C91.2656 89.8438 92.1771 90.2917 92.9688 90.7812C93.7604 91.2604 94.4219 91.8021 94.9531 92.4062C95.4844 93 95.8854 93.6719 96.1562 94.4219C96.4271 95.1719 96.5625 96.026 96.5625 96.9844C96.5625 97.9323 96.3958 98.7969 96.0625 99.5781C95.7396 100.349 95.2656 101.016 94.6406 101.578C94.0156 102.13 93.2604 102.557 92.375 102.859C91.5 103.161 90.5208 103.312 89.4375 103.312C88.3854 103.312 87.3906 103.167 86.4531 102.875C85.5156 102.573 84.6875 102.12 83.9688 101.516C83.2604 100.901 82.7031 100.125 82.2969 99.1875C81.8906 98.2396 81.6875 97.1198 81.6875 95.8281H86.2656C86.2656 96.5156 86.3333 97.1042 86.4688 97.5938C86.6042 98.0729 86.8125 98.4583 87.0938 98.75C87.375 99.0312 87.7188 99.2448 88.125 99.3906C88.5417 99.526 89.0156 99.5938 89.5469 99.5938C90.151 99.5938 90.6302 99.4792 90.9844 99.25C91.349 99.0208 91.6094 98.7135 91.7656 98.3281C91.9219 97.9427 92 97.5052 92 97.0156Z" fill="white"/>
</svg>
